<svg height="576" viewBox="0 0 720 432" width="960" xmlns="http://www.w3.org/2000/svg" xmlns:xlink="http://www.w3.org/1999/xlink"><defs><style>*{stroke-linecap:butt;stroke-linejoin:round}</style></defs><g id="figure_1"><path d="M0 432h720V0H0z" fill="#fff" id="patch_1"/><g id="axes_1"><path d="M329.538 216a145.278 145.278 0 0 0-89.681-134.217 145.278 145.278 0 0 0-158.32 31.492 145.278 145.278 0 0 0-31.491 158.32 145.278 145.278 0 0 0 134.216 89.68 145.278 145.278 0 0 0 134.217-89.68A145.278 145.278 0 0 0 329.538 216m0 0z" fill="#fff" id="patch_2"/><g id="matplotlib.axis_1"><g id="xtick_1"><path clip-path="url(#pe8f2703b21)" d="M184.262 216V70.725" fill="none" stroke="#b0b0b0" stroke-linecap="square" stroke-width=".8" id="line2d_1"/><g id="text_1"><defs><path d="M31.781 66.406q-7.61 0-11.453-7.5Q16.5 51.422 16.5 36.375q0-14.984 3.828-22.484 3.844-7.5 11.453-7.5 7.672 0 11.5 7.5 3.844 7.5 3.844 22.484 0 15.047-3.844 22.531-3.828 7.5-11.5 7.5zm0 7.813q12.266 0 18.735-9.703 6.468-9.688 6.468-28.141 0-18.406-6.468-28.11-6.47-9.687-18.735-9.687-12.25 0-18.718 9.688-6.47 9.703-6.47 28.109 0 18.453 6.47 28.14Q19.53 74.22 31.78 74.22z" id="DejaVuSans-48"/><path d="M11.719 12.406h10.297V0H11.719zm0 39.297h10.297v-12.39H11.719z" id="DejaVuSans-58"/></defs><g transform="matrix(.1 0 0 -.1 173.034 59.484)"><use xlink:href="#DejaVuSans-48"/><use x="63.623" xlink:href="#DejaVuSans-58"/><use x="97.314" xlink:href="#DejaVuSans-48"/><use x="160.938" xlink:href="#DejaVuSans-48"/></g></g></g><g id="xtick_2"><path clip-path="url(#pe8f2703b21)" d="M184.262 216l102.725-102.725" fill="none" stroke="#b0b0b0" stroke-linecap="square" stroke-width=".8" id="line2d_2"/><g id="text_2"><defs><path d="M40.578 39.313Q47.656 37.797 51.625 33q3.984-4.781 3.984-11.813 0-10.78-7.422-16.703-7.421-5.906-21.093-5.906-4.578 0-9.438.906-4.86.907-10.031 2.72v9.515q4.094-2.39 8.969-3.61 4.89-1.218 10.218-1.218 9.266 0 14.125 3.656 4.86 3.656 4.86 10.64 0 6.454-4.516 10.079-4.515 3.64-12.562 3.64h-8.5v8.11h8.89q7.266 0 11.125 2.906 3.86 2.906 3.86 8.375 0 5.61-3.985 8.61-3.968 3.015-11.39 3.015-4.063 0-8.703-.89-4.641-.876-10.203-2.72v8.782q5.624 1.562 10.53 2.344 4.907.78 9.25.78 11.235 0 17.766-5.109 6.547-5.093 6.547-13.78 0-6.063-3.468-10.235-3.47-4.172-9.86-5.782z" id="DejaVuSans-51"/></defs><g transform="matrix(.1 0 0 -.1 285.659 106.135)"><use xlink:href="#DejaVuSans-51"/><use x="63.623" xlink:href="#DejaVuSans-58"/><use x="97.314" xlink:href="#DejaVuSans-48"/><use x="160.938" xlink:href="#DejaVuSans-48"/></g></g></g><g id="xtick_3"><path clip-path="url(#pe8f2703b21)" d="M184.262 216h145.276" fill="none" stroke="#b0b0b0" stroke-linecap="square" stroke-width=".8" id="line2d_3"/><g id="text_3"><defs><path d="M33.016 40.375q-6.641 0-10.532-4.547-3.875-4.531-3.875-12.437 0-7.86 3.875-12.438 3.891-4.562 10.532-4.562 6.64 0 10.515 4.562 3.875 4.578 3.875 12.438 0 7.906-3.875 12.437-3.875 4.547-10.515 4.547zm19.578 30.922v-8.984q-3.719 1.75-7.5 2.671-3.782.938-7.5.938-9.766 0-14.922-6.594-5.14-6.594-5.875-19.922 2.875 4.25 7.219 6.516 4.359 2.266 9.578 2.266 10.984 0 17.36-6.672 6.374-6.657 6.374-18.125 0-11.235-6.64-18.032-6.641-6.78-17.672-6.78-12.657 0-19.344 9.687-6.688 9.703-6.688 28.109 0 17.281 8.204 27.563 8.203 10.28 22.015 10.28 3.719 0 7.5-.734t7.89-2.187z" id="DejaVuSans-54"/></defs><g transform="matrix(.1 0 0 -.1 332.31 218.76)"><use xlink:href="#DejaVuSans-54"/><use x="63.623" xlink:href="#DejaVuSans-58"/><use x="97.314" xlink:href="#DejaVuSans-48"/><use x="160.938" xlink:href="#DejaVuSans-48"/></g></g></g><g id="xtick_4"><path clip-path="url(#pe8f2703b21)" d="M184.262 216l102.725 102.725" fill="none" stroke="#b0b0b0" stroke-linecap="square" stroke-width=".8" id="line2d_4"/><g id="text_4"><defs><path d="M10.984 1.516V10.5q3.72-1.766 7.516-2.688 3.813-.921 7.484-.921 9.766 0 14.907 6.562 5.156 6.563 5.89 19.953-2.828-4.203-7.187-6.453-4.344-2.25-9.61-2.25-10.937 0-17.312 6.61-6.375 6.625-6.375 18.109 0 11.219 6.64 18 6.641 6.797 17.672 6.797 12.657 0 19.313-9.703 6.672-9.688 6.672-28.141 0-17.234-8.188-27.516Q40.234-1.42 26.422-1.42q-3.719 0-7.531.734-3.797.734-7.907 2.203zM30.61 32.422q6.641 0 10.516 4.531 3.89 4.547 3.89 12.469 0 7.86-3.89 12.422-3.875 4.562-10.516 4.562-6.64 0-10.515-4.562-3.875-4.563-3.875-12.422 0-7.922 3.875-12.469 3.875-4.531 10.515-4.531z" id="DejaVuSans-57"/></defs><g transform="matrix(.1 0 0 -.1 285.659 331.384)"><use xlink:href="#DejaVuSans-57"/><use x="63.623" xlink:href="#DejaVuSans-58"/><use x="97.314" xlink:href="#DejaVuSans-48"/><use x="160.938" xlink:href="#DejaVuSans-48"/></g></g></g><g id="xtick_5"><path clip-path="url(#pe8f2703b21)" d="M184.262 216v145.275" fill="none" stroke="#b0b0b0" stroke-linecap="square" stroke-width=".8" id="line2d_5"/><g id="text_5"><defs><path d="M12.406 8.297h16.11v55.625l-17.532-3.516v8.985l17.438 3.515h9.86V8.296H54.39V0H12.406z" id="DejaVuSans-49"/><path d="M19.188 8.297h34.421V0H7.33v8.297q5.609 5.812 15.296 15.594 9.703 9.797 12.188 12.64 4.734 5.313 6.609 9 1.89 3.688 1.89 7.25 0 5.813-4.078 9.469-4.078 3.672-10.625 3.672-4.64 0-9.797-1.61-5.14-1.609-11-4.89v9.969Q13.767 71.78 18.938 73q5.188 1.219 9.485 1.219 11.328 0 18.062-5.672 6.735-5.656 6.735-15.125 0-4.5-1.688-8.531-1.672-4.016-6.125-9.485-1.218-1.422-7.765-8.187-6.532-6.766-18.453-18.922z" id="DejaVuSans-50"/></defs><g transform="matrix(.1 0 0 -.1 169.853 378.034)"><use xlink:href="#DejaVuSans-49"/><use x="63.623" xlink:href="#DejaVuSans-50"/><use x="127.246" xlink:href="#DejaVuSans-58"/><use x="160.938" xlink:href="#DejaVuSans-48"/><use x="224.561" xlink:href="#DejaVuSans-48"/></g></g></g><g id="xtick_6"><path clip-path="url(#pe8f2703b21)" d="M184.262 216L81.538 318.725" fill="none" stroke="#b0b0b0" stroke-linecap="square" stroke-width=".8" id="line2d_6"/><g id="text_6"><defs><path d="M10.797 72.906h38.719v-8.312H19.828v-17.86q2.14.735 4.281 1.094 2.157.36 4.313.36 12.203 0 19.328-6.688 7.14-6.688 7.14-18.11 0-11.765-7.328-18.296-7.328-6.516-20.656-6.516-4.593 0-9.36.781-4.75.782-9.827 2.344v9.922q4.39-2.39 9.078-3.563 4.687-1.171 9.906-1.171 8.453 0 13.375 4.437 4.938 4.438 4.938 12.063 0 7.609-4.938 12.047-4.922 4.453-13.375 4.453-3.953 0-7.89-.875-3.922-.875-8.016-2.735z" id="DejaVuSans-53"/></defs><g transform="matrix(.1 0 0 -.1 57.229 331.384)"><use xlink:href="#DejaVuSans-49"/><use x="63.623" xlink:href="#DejaVuSans-53"/><use x="127.246" xlink:href="#DejaVuSans-58"/><use x="160.938" xlink:href="#DejaVuSans-48"/><use x="224.561" xlink:href="#DejaVuSans-48"/></g></g></g><g id="xtick_7"><path clip-path="url(#pe8f2703b21)" d="M184.262 216H38.988" fill="none" stroke="#b0b0b0" stroke-linecap="square" stroke-width=".8" id="line2d_7"/><g id="text_7"><defs><path d="M31.781 34.625q-7.031 0-11.062-3.766-4.016-3.765-4.016-10.343 0-6.594 4.016-10.36Q24.75 6.391 31.78 6.391q7.032 0 11.078 3.78 4.063 3.798 4.063 10.345 0 6.578-4.031 10.343-4.016 3.766-11.11 3.766zm-9.86 4.188q-6.343 1.562-9.89 5.906Q8.5 49.079 8.5 55.329q0 8.733 6.219 13.812 6.234 5.078 17.062 5.078 10.89 0 17.094-5.078 6.203-5.079 6.203-13.813 0-6.25-3.547-10.61-3.531-4.343-9.828-5.906 7.125-1.656 11.094-6.5 3.984-4.828 3.984-11.796 0-10.61-6.468-16.282-6.47-5.656-18.532-5.656-12.047 0-18.531 5.656-6.469 5.672-6.469 16.282 0 6.968 4 11.797 4.016 4.843 11.14 6.5zM18.314 54.39q0-5.657 3.53-8.828 3.548-3.172 9.938-3.172 6.36 0 9.938 3.172 3.593 3.171 3.593 8.828 0 5.672-3.593 8.843-3.578 3.172-9.938 3.172-6.39 0-9.937-3.172-3.532-3.172-3.532-8.843z" id="DejaVuSans-56"/></defs><g transform="matrix(.1 0 0 -.1 10.578 218.76)"><use xlink:href="#DejaVuSans-49"/><use x="63.623" xlink:href="#DejaVuSans-56"/><use x="127.246" xlink:href="#DejaVuSans-58"/><use x="160.938" xlink:href="#DejaVuSans-48"/><use x="224.561" xlink:href="#DejaVuSans-48"/></g></g></g><g id="xtick_8"><path clip-path="url(#pe8f2703b21)" d="M184.262 216L81.538 113.275" fill="none" stroke="#b0b0b0" stroke-linecap="square" stroke-width=".8" id="line2d_8"/><g transform="matrix(.1 0 0 -.1 57.229 106.135)" id="text_8"><use xlink:href="#DejaVuSans-50"/><use x="63.623" xlink:href="#DejaVuSans-49"/><use x="127.246" xlink:href="#DejaVuSans-58"/><use x="160.938" xlink:href="#DejaVuSans-48"/><use x="224.561" xlink:href="#DejaVuSans-48"/></g></g></g><g id="matplotlib.axis_2"><g id="ytick_1"><path clip-path="url(#pe8f2703b21)" d="M184.262 193.32l2.371.123 2.345.372 2.293.614 2.217.851 2.115 1.078 1.99 1.293 1.846 1.494 1.679 1.679 1.494 1.845 1.293 1.99 1.077 2.116.851 2.216.615 2.293.371 2.345.124 2.371-.124 2.37-.371 2.346-.615 2.293-.85 2.216-1.078 2.115-1.293 1.991-1.494 1.845-1.68 1.68-1.844 1.493-1.991 1.293-2.115 1.078-2.217.85-2.293.615-2.345.372-2.37.124-2.371-.124-2.345-.372-2.293-.614-2.217-.851-2.115-1.078-1.99-1.293-1.846-1.494-1.679-1.679-1.494-1.845-1.293-1.99-1.077-2.116-.851-2.216-.615-2.293-.371-2.345-.124-2.371.124-2.37.371-2.346.615-2.293.85-2.216 1.078-2.115 1.293-1.991 1.494-1.845 1.68-1.68 1.844-1.493 1.991-1.293 2.115-1.078 2.217-.85 2.293-.615 2.345-.372 2.37-.124h0" fill="none" stroke="#b0b0b0" stroke-linecap="square" stroke-width=".8" id="line2d_9"/><g id="text_9"><defs><path d="M10.688 12.406H21V0H10.687z" id="DejaVuSans-46"/></defs><g transform="matrix(.1 0 0 -.1 192.942 192.966)"><use xlink:href="#DejaVuSans-48"/><use x="63.623" xlink:href="#DejaVuSans-46"/><use x="95.41" xlink:href="#DejaVuSans-53"/></g></g></g><g id="ytick_2"><path clip-path="url(#pe8f2703b21)" d="M184.262 170.638l3.165.11 3.149.332 3.118.55 3.072.766 3.011.978 2.936 1.186 2.845 1.388 2.742 1.583 2.625 1.77 2.495 1.95 2.353 2.119 2.2 2.277 2.035 2.426 1.861 2.561 1.678 2.685 1.486 2.796 1.288 2.892 1.083 2.975.873 3.044.658 3.097.44 3.135.221 3.159v3.166l-.22 3.159-.441 3.135-.658 3.097-.873 3.044-1.083 2.975-1.288 2.892-1.486 2.796-1.678 2.685-1.861 2.561-2.035 2.426-2.2 2.277-2.353 2.119-2.495 1.95-2.625 1.77-2.742 1.583-2.845 1.388-2.936 1.186-3.011.978-3.072.766-3.118.55-3.15.331-3.163.11-3.165-.11-3.149-.33-3.118-.55-3.072-.767-3.011-.978-2.936-1.186-2.845-1.388-2.742-1.583-2.625-1.77-2.495-1.95-2.353-2.119-2.2-2.277-2.035-2.426-1.861-2.561-1.678-2.685-1.486-2.796-1.288-2.892-1.083-2.975-.873-3.044-.658-3.097-.44-3.135-.221-3.159v-3.166l.22-3.159.441-3.135.658-3.097.873-3.044 1.083-2.975 1.288-2.892 1.486-2.796 1.678-2.685 1.861-2.561 2.035-2.426 2.2-2.277 2.353-2.119 2.495-1.95 2.625-1.77 2.742-1.583 2.845-1.388 2.936-1.186 3.011-.978 3.072-.766 3.118-.55 3.15-.331 3.163-.11h0" fill="none" stroke="#b0b0b0" stroke-linecap="square" stroke-width=".8" id="line2d_10"/><g transform="matrix(.1 0 0 -.1 201.622 172.012)" id="text_10"><use xlink:href="#DejaVuSans-49"/><use x="63.623" xlink:href="#DejaVuSans-46"/><use x="95.41" xlink:href="#DejaVuSans-48"/></g></g><g id="ytick_3"><path clip-path="url(#pe8f2703b21)" d="M184.262 147.958l4.747.165 4.723.497 4.677.824 4.609 1.15 4.516 1.467 4.404 1.78 4.268 2.081 4.113 2.375 3.938 2.656 3.742 2.923 3.53 3.178 3.299 3.417 3.053 3.638 2.791 3.842 2.517 4.028 2.23 4.193 1.931 4.339 1.625 4.463 1.309 4.565.987 4.646.661 4.703.331 4.737v4.75l-.33 4.737-.662 4.703-.987 4.646-1.31 4.565-1.624 4.463-1.931 4.339-2.23 4.193-2.517 4.028-2.791 3.842-3.053 3.638-3.3 3.417-3.529 3.178-3.742 2.923-3.938 2.656-4.113 2.375-4.268 2.082-4.404 1.779-4.516 1.468-4.609 1.149-4.677.824-4.723.497-4.746.165-4.747-.165-4.723-.497-4.677-.824-4.609-1.15-4.516-1.467-4.404-1.78-4.268-2.081-4.113-2.375-3.938-2.656-3.742-2.923-3.53-3.178-3.299-3.417-3.053-3.638-2.791-3.842-2.517-4.028-2.23-4.193-1.931-4.339-1.625-4.463-1.309-4.565-.987-4.646-.661-4.703-.331-4.737v-4.75l.33-4.737.662-4.703.987-4.646 1.31-4.565 1.624-4.463 1.931-4.339 2.23-4.193 2.517-4.028 2.791-3.842 3.053-3.638 3.3-3.417 3.529-3.178 3.742-2.923 3.938-2.656 4.113-2.375 4.268-2.082 4.404-1.779 4.516-1.468 4.609-1.149 4.677-.824 4.723-.497 4.746-.165h0" fill="none" stroke="#b0b0b0" stroke-linecap="square" stroke-width=".8" id="line2d_11"/><g transform="matrix(.1 0 0 -.1 210.301 151.057)" id="text_11"><use xlink:href="#DejaVuSans-49"/><use x="63.623" xlink:href="#DejaVuSans-46"/><use x="95.41" xlink:href="#DejaVuSans-53"/></g></g><g id="ytick_4"><path clip-path="url(#pe8f2703b21)" d="M184.262 125.277l6.329.22 6.298.663 6.236 1.1 6.144 1.531 6.023 1.957 5.871 2.372 5.691 2.776 5.484 3.166 5.25 3.541 4.99 3.899 4.706 4.237 4.399 4.555 4.07 4.851 3.722 5.123 3.356 5.37 2.973 5.592 2.576 5.784 2.165 5.951 1.746 6.087 1.316 6.194.882 6.27.441 6.318v6.332l-.441 6.317-.882 6.27-1.316 6.195-1.746 6.087-2.165 5.95-2.576 5.785-2.973 5.592-3.356 5.37-3.722 5.123-4.07 4.85-4.399 4.556-4.706 4.237-4.99 3.899-5.25 3.54-5.484 3.167-5.691 2.776-5.871 2.372-6.023 1.957-6.144 1.532-6.236 1.1-6.298.661-6.329.221-6.328-.22-6.298-.663-6.236-1.1-6.144-1.531-6.023-1.957-5.871-2.372-5.691-2.776-5.484-3.166-5.25-3.541-4.99-3.899-4.706-4.237-4.399-4.555-4.07-4.851-3.722-5.123-3.356-5.37-2.973-5.592-2.576-5.784-2.165-5.951-1.746-6.087-1.316-6.194-.882-6.27-.441-6.318v-6.332l.441-6.317.882-6.27 1.316-6.195 1.746-6.087 2.165-5.95 2.576-5.785 2.973-5.592 3.356-5.37 3.722-5.123 4.07-4.85 4.399-4.556 4.706-4.237 4.99-3.899 5.25-3.54 5.484-3.167 5.691-2.776 5.871-2.372 6.023-1.957 6.144-1.532 6.236-1.1 6.298-.661 6.328-.221h0" fill="none" stroke="#b0b0b0" stroke-linecap="square" stroke-width=".8" id="line2d_12"/><g transform="matrix(.1 0 0 -.1 218.98 130.103)" id="text_12"><use xlink:href="#DejaVuSans-50"/><use x="63.623" xlink:href="#DejaVuSans-46"/><use x="95.41" xlink:href="#DejaVuSans-48"/></g></g><g id="ytick_5"><path clip-path="url(#pe8f2703b21)" d="M184.262 102.596l3.958.07 3.953.206 3.943.345 3.93.483 3.909.619 3.886.755 3.856.89 3.824 1.025 3.785 1.157 3.743 1.29 3.695 1.418 3.644 1.546 3.588 1.673 3.526 1.797 3.463 1.92 3.392 2.038 3.32 2.156 3.243 2.27 3.161 2.382 3.076 2.491 2.988 2.597 2.895 2.7 2.799 2.799 2.7 2.895 2.596 2.987 2.491 3.077 2.382 3.16 2.27 3.243 2.157 3.32 2.038 3.393 1.92 3.462 1.796 3.527 1.673 3.587 1.547 3.644 1.418 3.696 1.29 3.742 1.156 3.786 1.025 3.823.89 3.857.756 3.886.619 3.91.482 3.928.345 3.943.207 3.953.07 3.958-.07 3.958-.207 3.953-.345 3.943-.482 3.929-.62 3.91-.755 3.885-.89 3.857-1.025 3.823-1.157 3.786-1.289 3.742-1.418 3.696-1.547 3.644-1.673 3.587-1.797 3.527-1.919 3.462-2.038 3.393-2.156 3.32-2.27 3.242-2.383 3.161-2.491 3.077-2.597 2.987-2.7 2.895-2.798 2.799-2.895 2.7-2.988 2.597-3.076 2.49-3.161 2.383-3.243 2.27-3.32 2.156-3.392 2.039-3.463 1.919-3.526 1.797-3.588 1.673-3.644 1.546-3.695 1.419-3.743 1.289-3.785 1.157-3.824 1.024-3.856.89-3.886.756-3.91.62-3.929.482-3.943.345-3.953.207-3.958.069-3.957-.07-3.953-.206-3.943-.345-3.93-.483-3.909-.619-3.886-.755-3.856-.89-3.824-1.025-3.785-1.157-3.743-1.29-3.695-1.418-3.644-1.546-3.588-1.673-3.526-1.797-3.463-1.92-3.392-2.038-3.32-2.156-3.243-2.27-3.161-2.382-3.076-2.491-2.988-2.597-2.895-2.7-2.799-2.799-2.7-2.895-2.596-2.987-2.491-3.077-2.382-3.16-2.27-3.243-2.157-3.32-2.038-3.393-1.92-3.462-1.796-3.527-1.673-3.587-1.547-3.644-1.418-3.696-1.29-3.742-1.156-3.786-1.025-3.823-.89-3.857-.756-3.886-.619-3.91-.482-3.928-.345-3.943-.207-3.953-.07-3.958.07-3.958.207-3.953.345-3.943.482-3.929.62-3.91.755-3.885.89-3.857 1.025-3.823 1.157-3.786 1.289-3.742 1.418-3.696 1.547-3.644 1.673-3.587 1.797-3.527 1.919-3.462 2.038-3.393 2.156-3.32 2.27-3.242 2.383-3.161 2.491-3.077 2.597-2.987 2.7-2.895 2.798-2.799 2.895-2.7 2.988-2.597 3.076-2.49 3.161-2.383 3.243-2.27 3.32-2.156 3.392-2.039 3.463-1.919 3.526-1.797 3.588-1.673 3.644-1.546 3.695-1.419 3.743-1.289 3.785-1.157 3.824-1.024 3.856-.89 3.886-.756 3.91-.62 3.929-.482 3.943-.345 3.953-.207 3.957-.069h0" fill="none" stroke="#b0b0b0" stroke-linecap="square" stroke-width=".8" id="line2d_13"/><g transform="matrix(.1 0 0 -.1 227.66 109.149)" id="text_13"><use xlink:href="#DejaVuSans-50"/><use x="63.623" xlink:href="#DejaVuSans-46"/><use x="95.41" xlink:href="#DejaVuSans-53"/></g></g><g id="ytick_6"><path clip-path="url(#pe8f2703b21)" d="M184.262 79.915l4.75.083 4.743.249 4.732.414 4.715.579 4.691.743 4.663.906 4.628 1.068 4.589 1.23 4.542 1.389 4.491 1.546 4.435 1.702 4.372 1.856 4.305 2.008 4.232 2.156 4.155 2.303 4.071 2.447 3.984 2.587 3.891 2.724 3.794 2.859 3.691 2.989 3.585 3.116 3.474 3.24 3.359 3.359 3.24 3.473 3.116 3.585 2.989 3.692 2.858 3.793 2.725 3.891 2.587 3.984 2.446 4.072 2.303 4.154 2.157 4.232 2.007 4.305 1.856 4.373 1.702 4.434 1.547 4.491 1.389 4.543 1.229 4.588 1.069 4.628.906 4.663.743 4.692.579 4.714.414 4.732.248 4.744.083 4.749-.083 4.75-.248 4.743-.414 4.732-.579 4.714-.743 4.692-.906 4.663-1.069 4.628-1.23 4.588-1.388 4.543-1.547 4.49-1.702 4.435-1.856 4.373-2.007 4.305-2.157 4.232-2.303 4.154-2.446 4.072-2.587 3.984-2.725 3.89-2.858 3.794-2.99 3.692-3.116 3.585-3.24 3.473-3.358 3.36-3.474 3.239-3.585 3.116-3.691 2.99-3.794 2.858-3.89 2.724-3.985 2.587-4.071 2.447-4.155 2.303-4.232 2.156-4.305 2.008-4.372 1.856-4.435 1.702-4.491 1.546-4.542 1.39-4.589 1.229-4.628 1.068-4.663.906-4.691.743-4.715.58-4.732.413-4.743.249-4.75.083-4.749-.083-4.743-.249-4.732-.414-4.715-.579-4.691-.743-4.663-.906-4.628-1.068-4.589-1.23-4.542-1.389-4.491-1.546-4.435-1.702-4.372-1.856-4.305-2.008-4.232-2.156-4.155-2.303-4.071-2.447-3.984-2.587-3.891-2.724-3.794-2.859-3.691-2.989-3.585-3.116-3.474-3.24-3.359-3.359-3.24-3.473-3.116-3.585-2.989-3.692-2.858-3.793-2.725-3.891-2.587-3.984-2.446-4.072-2.303-4.154-2.157-4.232-2.007-4.305-1.856-4.373-1.702-4.434-1.547-4.491-1.389-4.543-1.229-4.588-1.069-4.628-.906-4.663-.743-4.692-.579-4.714-.414-4.732-.248-4.744-.083-4.749.083-4.75.248-4.743.414-4.732.579-4.714.743-4.692.906-4.663 1.069-4.628 1.23-4.588 1.388-4.543 1.547-4.49 1.702-4.435 1.856-4.373 2.007-4.305 2.157-4.232 2.303-4.154 2.446-4.072 2.587-3.984 2.725-3.89 2.858-3.794 2.99-3.692 3.116-3.585 3.24-3.473 3.358-3.36 3.474-3.239 3.585-3.116 3.691-2.99 3.794-2.858 3.89-2.724 3.985-2.587 4.071-2.447 4.155-2.303 4.232-2.156 4.305-2.008 4.372-1.856 4.435-1.702 4.491-1.546 4.542-1.39 4.589-1.229 4.628-1.068 4.663-.906 4.691-.743 4.715-.58 4.732-.413 4.743-.249 4.75-.083h0" fill="none" stroke="#b0b0b0" stroke-linecap="square" stroke-width=".8" id="line2d_14"/><g transform="matrix(.1 0 0 -.1 236.34 88.194)" id="text_14"><use xlink:href="#DejaVuSans-51"/><use x="63.623" xlink:href="#DejaVuSans-46"/><use x="95.41" xlink:href="#DejaVuSans-48"/></g></g><g id="text_15"><defs><path d="M56.203 29.594v-4.39H14.891q.593-9.282 5.593-14.142 5-4.859 13.938-4.859 5.172 0 10.031 1.266 4.86 1.265 9.656 3.812v-8.5Q49.266.734 44.187-.344 39.11-1.422 33.892-1.422q-13.094 0-20.735 7.61-7.64 7.625-7.64 20.625 0 13.421 7.25 21.296Q20.016 56 32.328 56q11.031 0 17.453-7.11 6.422-7.093 6.422-19.296zm-8.984 2.64q-.094 7.36-4.125 11.75-4.032 4.407-10.672 4.407-7.516 0-12.031-4.25-4.516-4.25-5.203-11.97z" id="DejaVuSans-101"/></defs><g transform="matrix(.1 0 0 -.1 256.9 67.725)"><use xlink:href="#DejaVuSans-49"/><use x="63.623" xlink:href="#DejaVuSans-101"/><use x="125.146" xlink:href="#DejaVuSans-53"/></g></g></g><path clip-path="url(#pe8f2703b21)" d="M184.262 118.16l20.55 21.145 6.759 29.396-5.096 25.087-3.736 11.545 2.276 5.106L226.129 216l53.402 25.527 17.644 39.663-14.36 33.362-30.42 19.458-44.86-31.154-23.273.74-29.536 22.637-27.305-11.781-27.782-13.828-18.977-24.81-11.837-28.883L86.697 216l29.364-18.275 5.067-18.176 4.358-22.326 13.822-19.086 17.284-25.405 27.67 5.428" fill="none" stroke="#32cd32" stroke-linecap="square" stroke-opacity=".6" stroke-width="5" id="line2d_15"/><path d="M184.262 70.725a145.278 145.278 0 0 0-134.216 89.68 145.278 145.278 0 0 0 31.492 158.32 145.278 145.278 0 0 0 158.319 31.492A145.278 145.278 0 0 0 329.537 216a145.278 145.278 0 0 0-89.68-134.217 145.278 145.278 0 0 0-55.595-11.058" fill="none" stroke="#000" stroke-linecap="square" stroke-width=".8" id="patch_3"/><g id="text_16"><defs><path d="M-.297 72.906h61.672v-8.312H35.5V0h-9.906v64.594H-.296z" id="DejaVuSans-84"/><path d="M30.61 48.39q-7.22 0-11.422-5.64-4.204-5.64-4.204-15.453 0-9.813 4.172-15.453 4.188-5.64 11.453-5.64 7.188 0 11.375 5.655 4.203 5.672 4.203 15.438 0 9.719-4.203 15.406-4.187 5.688-11.375 5.688zm0 7.61q11.718 0 18.406-7.625 6.703-7.61 6.703-21.078 0-13.422-6.703-21.078-6.688-7.64-18.407-7.64-11.765 0-18.437 7.64-6.656 7.656-6.656 21.078 0 13.469 6.656 21.078Q18.844 56 30.609 56z" id="DejaVuSans-111"/><path d="M18.313 70.219V54.688h18.5v-6.985h-18.5V18.016q0-6.688 1.828-8.594 1.828-1.906 7.453-1.906h9.218V0h-9.218q-10.407 0-14.36 3.875-3.953 3.89-3.953 14.14v29.688H2.687v6.984h6.594V70.22z" id="DejaVuSans-116"/><path d="M34.281 27.484q-10.89 0-15.093-2.484-4.204-2.484-4.204-8.5 0-4.781 3.157-7.594 3.156-2.797 8.562-2.797 7.485 0 12 5.297 4.516 5.297 4.516 14.078v2zm17.922 3.72V0H43.22v8.297Q40.14 3.328 35.547.953q-4.594-2.375-11.234-2.375-8.391 0-13.36 4.719Q6 8.016 6 15.922q0 9.219 6.172 13.906 6.187 4.688 18.437 4.688h12.61v.89q0 6.203-4.078 9.594-4.078 3.39-11.453 3.39-4.688 0-9.141-1.124-4.438-1.125-8.531-3.375v8.312q4.921 1.906 9.562 2.844 4.64.953 9.031.953 11.875 0 17.735-6.156 5.86-6.14 5.86-18.64z" id="DejaVuSans-97"/><path d="M9.422 75.984h8.984V0H9.422z" id="DejaVuSans-108"/><path d="M41.11 46.297q-1.516.875-3.297 1.281Q36.03 48 33.89 48q-7.625 0-11.703-4.953-4.079-4.953-4.079-14.234V0H9.08v54.688h9.03v-8.5q2.844 4.984 7.375 7.39Q30.031 56 36.531 56q.922 0 2.047-.125 1.125-.11 2.484-.36z" id="DejaVuSans-114"/><path d="M37.11 75.984V68.5h-8.594q-4.828 0-6.72-1.953-1.874-1.953-1.874-7.031v-4.828h14.797v-6.985H19.922V0H10.89v47.703H2.297v6.984h8.594V58.5q0 9.125 4.25 13.297 4.25 4.187 13.468 4.187z" id="DejaVuSans-102"/><path d="M9.422 54.688h8.984V0H9.422zm0 21.296h8.984v-11.39H9.422z" id="DejaVuSans-105"/><path d="M48.781 52.594v-8.407q-3.812 2.11-7.64 3.157-3.828 1.047-7.735 1.047-8.75 0-13.593-5.547-4.829-5.532-4.829-15.547 0-10.016 4.829-15.563 4.843-5.53 13.593-5.53 3.907 0 7.735 1.046 3.828 1.047 7.64 3.156V2.094Q45.016.344 40.984-.531q-4.015-.89-8.562-.89-12.36 0-19.64 7.765-7.266 7.765-7.266 20.953 0 13.375 7.343 21.031Q20.22 56 33.016 56q4.14 0 8.093-.86 3.953-.843 7.672-2.546z" id="DejaVuSans-99"/><path d="M53.516 70.516V60.89q-5.61 2.687-10.594 4-4.984 1.328-9.625 1.328-8.047 0-12.422-3.125t-4.375-8.89q0-4.845 2.906-7.313 2.907-2.453 11.016-3.97l5.953-1.218q11.031-2.11 16.281-7.406 5.25-5.297 5.25-14.172 0-10.61-7.11-16.078-7.093-5.469-20.812-5.469-5.172 0-11.015 1.172Q13.14.922 6.89 3.219v10.156q6-3.36 11.765-5.078 5.766-1.703 11.328-1.703 8.438 0 13.032 3.312 4.593 3.328 4.593 9.485 0 5.359-3.297 8.39-3.296 3.032-10.812 4.547L27.484 33.5q-11.03 2.188-15.968 6.875-4.922 4.688-4.922 13.047 0 9.672 6.812 15.234 6.813 5.563 18.766 5.563 5.14 0 10.453-.938 5.328-.922 10.89-2.765z" id="DejaVuSans-83"/><path d="M18.11 8.203v-29H9.077v75.484h9.031v-8.296q2.844 4.875 7.157 7.234Q29.594 56 35.594 56q9.968 0 16.187-7.906 6.235-7.907 6.235-20.797T51.78 6.484q-6.218-7.906-16.187-7.906-6 0-10.328 2.375-4.313 2.375-7.157 7.25zm30.578 19.094q0 9.906-4.079 15.547-4.078 5.64-11.203 5.64-7.14 0-11.218-5.64-4.079-5.64-4.079-15.547 0-9.906 4.078-15.547 4.079-5.64 11.22-5.64 7.124 0 11.202 5.64t4.078 15.547z" id="DejaVuSans-112"/><path d="M44.281 53.078v-8.5q-3.797 1.953-7.906 2.922-4.094.984-8.5.984-6.688 0-10.031-2.047-3.344-2.046-3.344-6.156 0-3.125 2.39-4.906 2.391-1.781 9.626-3.39l3.078-.688q9.562-2.047 13.593-5.781 4.032-3.735 4.032-10.422 0-7.625-6.032-12.078-6.03-4.438-16.578-4.438-4.39 0-9.156.86Q10.688.296 5.422 2v9.281q4.984-2.594 9.812-3.89 4.829-1.282 9.579-1.282 6.343 0 9.75 2.172 3.421 2.172 3.421 6.125 0 3.656-2.468 5.61-2.453 1.953-10.813 3.765l-3.125.735q-8.344 1.75-12.062 5.39-3.704 3.64-3.704 9.985 0 7.718 5.47 11.906Q16.75 56 26.811 56q4.97 0 9.36-.734 4.406-.72 8.11-2.188z" id="DejaVuSans-115"/><path d="M2.984 54.688H12.5L29.594 8.797l17.093 45.89h9.516L35.687 0H23.485z" id="DejaVuSans-118"/><path d="M52 44.188q3.375 6.062 8.063 8.937Q64.75 56 71.093 56q8.548 0 13.188-5.984 4.64-5.97 4.64-17V0h-9.03v32.719q0 7.86-2.797 11.656-2.781 3.813-8.485 3.813-6.984 0-11.046-4.641-4.047-4.625-4.047-12.64V0h-9.032v32.719q0 7.906-2.78 11.687-2.782 3.782-8.595 3.782-6.89 0-10.953-4.657-4.047-4.656-4.047-12.625V0H9.08v54.688h9.03v-8.5q3.078 5.03 7.375 7.421Q29.781 56 35.687 56q5.97 0 10.141-3.031Q50 49.953 52 44.187z" id="DejaVuSans-109"/><path d="M19.672 64.797V8.109h11.922q15.093 0 22.093 6.829 7 6.843 7 21.593 0 14.64-7 21.453-7 6.813-22.093 6.813zm-9.86 8.11h20.266q21.188 0 31.094-8.813 9.922-8.813 9.922-27.563 0-18.86-9.969-27.703Q51.172 0 30.078 0H9.813z" id="DejaVuSans-68"/><path d="M32.172-5.078q-3.797-9.766-7.422-12.735-3.61-2.984-9.656-2.984H7.906v7.516h5.282q3.703 0 5.75 1.765Q21-9.766 23.483-3.219l1.61 4.094-22.11 53.813H12.5l17.094-42.766 17.093 42.766h9.516z" id="DejaVuSans-121"/></defs><g transform="matrix(.12 0 0 -.12 82.88 50.197)"><use xlink:href="#DejaVuSans-84"/><use x="60.818" xlink:href="#DejaVuSans-111"/><use x="122" xlink:href="#DejaVuSans-116"/><use x="161.209" xlink:href="#DejaVuSans-97"/><use x="222.488" xlink:href="#DejaVuSans-108"/><use x="250.271" xlink:href="#DejaVuSans-32"/><use x="282.059" xlink:href="#DejaVuSans-84"/><use x="342.924" xlink:href="#DejaVuSans-114"/><use x="384.037" xlink:href="#DejaVuSans-97"/><use x="445.316" xlink:href="#DejaVuSans-102"/><use x="480.521" xlink:href="#DejaVuSans-102"/><use x="515.727" xlink:href="#DejaVuSans-105"/><use x="543.51" xlink:href="#DejaVuSans-99"/><use x="598.49" xlink:href="#DejaVuSans-32"/><use x="630.277" xlink:href="#DejaVuSans-83"/><use x="693.754" xlink:href="#DejaVuSans-116"/><use x="732.963" xlink:href="#DejaVuSans-111"/><use x="794.145" xlink:href="#DejaVuSans-112"/><use x="857.621" xlink:href="#DejaVuSans-115"/><use x="909.721" xlink:href="#DejaVuSans-32"/><use x="941.508" xlink:href="#DejaVuSans-118"/><use x="1000.688" xlink:href="#DejaVuSans-115"/><use x="1052.787" xlink:href="#DejaVuSans-32"/><use x="1084.574" xlink:href="#DejaVuSans-84"/><use x="1145.611" xlink:href="#DejaVuSans-105"/><use x="1173.395" xlink:href="#DejaVuSans-109"/><use x="1270.807" xlink:href="#DejaVuSans-101"/><use x="1332.33" xlink:href="#DejaVuSans-32"/><use x="1364.117" xlink:href="#DejaVuSans-111"/><use x="1425.299" xlink:href="#DejaVuSans-102"/><use x="1460.504" xlink:href="#DejaVuSans-32"/><use x="1492.291" xlink:href="#DejaVuSans-68"/><use x="1569.293" xlink:href="#DejaVuSans-97"/><use x="1630.572" xlink:href="#DejaVuSans-121"/></g></g></g><g id="axes_2"><path d="M684.138 216a145.278 145.278 0 0 0-89.681-134.217 145.278 145.278 0 0 0-158.32 31.492 145.278 145.278 0 0 0-31.491 158.32 145.278 145.278 0 0 0 134.216 89.68 145.278 145.278 0 0 0 134.217-89.68A145.278 145.278 0 0 0 684.138 216m0 0z" fill="#fff" id="patch_4"/><g id="matplotlib.axis_3"><g id="xtick_9"><path clip-path="url(#p9fd8efec82)" d="M538.862 216V70.725" fill="none" stroke="#b0b0b0" stroke-linecap="square" stroke-width=".8" id="line2d_16"/><g transform="matrix(.1 0 0 -.1 527.634 59.484)" id="text_17"><use xlink:href="#DejaVuSans-48"/><use x="63.623" xlink:href="#DejaVuSans-58"/><use x="97.314" xlink:href="#DejaVuSans-48"/><use x="160.938" xlink:href="#DejaVuSans-48"/></g></g><g id="xtick_10"><path clip-path="url(#p9fd8efec82)" d="M538.862 216l102.725-102.725" fill="none" stroke="#b0b0b0" stroke-linecap="square" stroke-width=".8" id="line2d_17"/><g transform="matrix(.1 0 0 -.1 640.259 106.135)" id="text_18"><use xlink:href="#DejaVuSans-51"/><use x="63.623" xlink:href="#DejaVuSans-58"/><use x="97.314" xlink:href="#DejaVuSans-48"/><use x="160.938" xlink:href="#DejaVuSans-48"/></g></g><g id="xtick_11"><path clip-path="url(#p9fd8efec82)" d="M538.862 216h145.276" fill="none" stroke="#b0b0b0" stroke-linecap="square" stroke-width=".8" id="line2d_18"/><g transform="matrix(.1 0 0 -.1 686.91 218.76)" id="text_19"><use xlink:href="#DejaVuSans-54"/><use x="63.623" xlink:href="#DejaVuSans-58"/><use x="97.314" xlink:href="#DejaVuSans-48"/><use x="160.938" xlink:href="#DejaVuSans-48"/></g></g><g id="xtick_12"><path clip-path="url(#p9fd8efec82)" d="M538.862 216l102.725 102.725" fill="none" stroke="#b0b0b0" stroke-linecap="square" stroke-width=".8" id="line2d_19"/><g transform="matrix(.1 0 0 -.1 640.259 331.384)" id="text_20"><use xlink:href="#DejaVuSans-57"/><use x="63.623" xlink:href="#DejaVuSans-58"/><use x="97.314" xlink:href="#DejaVuSans-48"/><use x="160.938" xlink:href="#DejaVuSans-48"/></g></g><g id="xtick_13"><path clip-path="url(#p9fd8efec82)" d="M538.862 216v145.275" fill="none" stroke="#b0b0b0" stroke-linecap="square" stroke-width=".8" id="line2d_20"/><g transform="matrix(.1 0 0 -.1 524.453 378.034)" id="text_21"><use xlink:href="#DejaVuSans-49"/><use x="63.623" xlink:href="#DejaVuSans-50"/><use x="127.246" xlink:href="#DejaVuSans-58"/><use x="160.938" xlink:href="#DejaVuSans-48"/><use x="224.561" xlink:href="#DejaVuSans-48"/></g></g><g id="xtick_14"><path clip-path="url(#p9fd8efec82)" d="M538.862 216L436.138 318.725" fill="none" stroke="#b0b0b0" stroke-linecap="square" stroke-width=".8" id="line2d_21"/><g transform="matrix(.1 0 0 -.1 411.829 331.384)" id="text_22"><use xlink:href="#DejaVuSans-49"/><use x="63.623" xlink:href="#DejaVuSans-53"/><use x="127.246" xlink:href="#DejaVuSans-58"/><use x="160.938" xlink:href="#DejaVuSans-48"/><use x="224.561" xlink:href="#DejaVuSans-48"/></g></g><g id="xtick_15"><path clip-path="url(#p9fd8efec82)" d="M538.862 216H393.588" fill="none" stroke="#b0b0b0" stroke-linecap="square" stroke-width=".8" id="line2d_22"/><g transform="matrix(.1 0 0 -.1 365.178 218.76)" id="text_23"><use xlink:href="#DejaVuSans-49"/><use x="63.623" xlink:href="#DejaVuSans-56"/><use x="127.246" xlink:href="#DejaVuSans-58"/><use x="160.938" xlink:href="#DejaVuSans-48"/><use x="224.561" xlink:href="#DejaVuSans-48"/></g></g><g id="xtick_16"><path clip-path="url(#p9fd8efec82)" d="M538.862 216L436.138 113.275" fill="none" stroke="#b0b0b0" stroke-linecap="square" stroke-width=".8" id="line2d_23"/><g transform="matrix(.1 0 0 -.1 411.829 106.135)" id="text_24"><use xlink:href="#DejaVuSans-50"/><use x="63.623" xlink:href="#DejaVuSans-49"/><use x="127.246" xlink:href="#DejaVuSans-58"/><use x="160.938" xlink:href="#DejaVuSans-48"/><use x="224.561" xlink:href="#DejaVuSans-48"/></g></g></g><g id="matplotlib.axis_4"><g id="ytick_7"><path clip-path="url(#p9fd8efec82)" d="M538.862 198.806l1.798.095 1.777.281 1.739.466 1.68.645 1.603.817 1.51.98 1.398 1.133 1.273 1.272 1.132 1.399.98 1.51.818 1.603.645 1.68.465 1.738.282 1.778.094 1.797-.094 1.797-.282 1.778-.465 1.738-.645 1.68-.817 1.604-.98 1.51-1.133 1.398-1.273 1.272-1.398 1.133-1.51.98-1.603.817-1.68.645-1.739.466-1.777.281-1.798.095-1.797-.095-1.777-.281-1.739-.466-1.68-.645-1.603-.817-1.51-.98-1.398-1.133-1.273-1.272-1.132-1.399-.98-1.51-.818-1.603-.645-1.68-.465-1.738-.282-1.778-.094-1.797.094-1.797.282-1.778.465-1.738.645-1.68.817-1.604.98-1.51 1.133-1.398 1.273-1.272 1.398-1.133 1.51-.98 1.603-.817 1.68-.645 1.739-.466 1.777-.281 1.797-.095h0" fill="none" stroke="#b0b0b0" stroke-linecap="square" stroke-width=".8" id="line2d_24"/><g transform="matrix(.1 0 0 -.1 545.442 198.035)" id="text_25"><use xlink:href="#DejaVuSans-48"/><use x="63.623" xlink:href="#DejaVuSans-46"/><use x="95.41" xlink:href="#DejaVuSans-50"/></g></g><g id="ytick_8"><path clip-path="url(#p9fd8efec82)" d="M538.862 181.613l2.4.084 2.386.25 2.364.417 2.329.58 2.283.743 2.225.899 2.157 1.052 2.079 1.2 1.99 1.342 1.891 1.478 1.784 1.606 1.667 1.726 1.543 1.84 1.41 1.94 1.273 2.036 1.127 2.12.976 2.192.82 2.256.662 2.307.5 2.348.333 2.377.168 2.394v2.4l-.168 2.394-.334 2.377-.499 2.348-.661 2.307-.821 2.256-.976 2.192-1.127 2.12-1.272 2.035-1.411 1.942-1.543 1.839-1.667 1.726-1.784 1.606-1.891 1.478-1.99 1.342-2.079 1.2-2.157 1.052-2.225.9-2.283.741-2.329.58-2.364.418-2.387.25-2.399.084-2.398-.084-2.387-.25-2.364-.417-2.329-.58-2.283-.743-2.225-.899-2.157-1.052-2.079-1.2-1.99-1.342-1.891-1.478-1.784-1.606-1.667-1.726-1.543-1.84-1.41-1.94-1.273-2.036-1.127-2.12-.976-2.192-.82-2.256-.662-2.307-.5-2.348-.333-2.377-.168-2.394v-2.4l.168-2.394.334-2.377.499-2.348.661-2.307.821-2.256.976-2.192 1.127-2.12 1.272-2.035 1.411-1.942 1.543-1.839 1.667-1.726 1.784-1.606 1.891-1.478 1.99-1.342 2.079-1.2 2.157-1.052 2.225-.9 2.283-.741 2.329-.58 2.364-.418 2.387-.25 2.398-.084h0" fill="none" stroke="#b0b0b0" stroke-linecap="square" stroke-width=".8" id="line2d_25"/><g id="text_26"><defs><path d="M37.797 64.313L12.89 25.39h24.906zm-2.594 8.593H47.61V25.391h10.407v-8.203H47.609V0h-9.812v17.188H4.89v9.515z" id="DejaVuSans-52"/></defs><g transform="matrix(.1 0 0 -.1 552.022 182.15)"><use xlink:href="#DejaVuSans-48"/><use x="63.623" xlink:href="#DejaVuSans-46"/><use x="95.41" xlink:href="#DejaVuSans-52"/></g></g></g><g id="ytick_9"><path clip-path="url(#p9fd8efec82)" d="M538.862 164.42l3.599.125 3.58.376 3.546.625 3.493.871 3.424 1.113 3.338 1.349 3.236 1.578 3.118 1.8 2.985 2.013 2.837 2.217 2.676 2.409 2.5 2.59 2.315 2.758 2.116 2.912 1.908 3.054 1.69 3.178 1.464 3.29 1.232 3.383.992 3.46.749 3.522.5 3.565.252 3.592v3.6l-.251 3.592-.501 3.565-.749 3.522-.992 3.46-1.232 3.384-1.464 3.289-1.69 3.178-1.908 3.054-2.116 2.912-2.314 2.758-2.501 2.59-2.676 2.41-2.837 2.216-2.985 2.013-3.118 1.8-3.236 1.578-3.338 1.35-3.424 1.112-3.493.87-3.546.626-3.58.376-3.599.126-3.598-.126-3.58-.376-3.546-.625-3.493-.871-3.424-1.113-3.338-1.349-3.236-1.578-3.118-1.8-2.985-2.013-2.837-2.217-2.676-2.409-2.5-2.59-2.315-2.758-2.116-2.912-1.908-3.054-1.69-3.178-1.464-3.29-1.232-3.383-.992-3.46-.749-3.522-.5-3.565-.252-3.592v-3.6l.251-3.592.501-3.565.749-3.522.992-3.46 1.232-3.384 1.464-3.289 1.69-3.178 1.908-3.054 2.116-2.912 2.314-2.758 2.501-2.59 2.676-2.41 2.837-2.216 2.985-2.013 3.118-1.8 3.236-1.578 3.338-1.35 3.424-1.112 3.493-.87 3.546-.626 3.58-.376 3.598-.126h0" fill="none" stroke="#b0b0b0" stroke-linecap="square" stroke-width=".8" id="line2d_26"/><g transform="matrix(.1 0 0 -.1 558.602 166.266)" id="text_27"><use xlink:href="#DejaVuSans-48"/><use x="63.623" xlink:href="#DejaVuSans-46"/><use x="95.41" xlink:href="#DejaVuSans-54"/></g></g><g id="ytick_10"><path clip-path="url(#p9fd8efec82)" d="M538.862 147.225l4.798.168 4.774.502 4.728.833 4.657 1.162 4.566 1.483 4.45 1.798 4.315 2.105 4.157 2.4 3.98 2.684 3.783 2.956 3.567 3.212 3.335 3.453 3.086 3.677 2.821 3.884 2.544 4.07 2.254 4.24 1.952 4.385 1.642 4.51 1.323 4.615.998 4.695.668 4.754.335 4.789v4.8l-.335 4.789-.668 4.754-.998 4.695-1.323 4.614-1.642 4.511-1.952 4.386-2.254 4.238-2.544 4.071-2.821 3.884-3.086 3.677-3.335 3.453-3.567 3.212-3.783 2.956-3.98 2.684-4.157 2.4-4.314 2.105-4.451 1.798-4.566 1.483-4.657 1.162-4.728.833-4.774.502-4.798.168-4.797-.168-4.774-.502-4.728-.833-4.657-1.162-4.566-1.483-4.45-1.798-4.315-2.105-4.157-2.4-3.98-2.684-3.783-2.956-3.567-3.212-3.335-3.453-3.086-3.677-2.821-3.884-2.544-4.07-2.254-4.24-1.952-4.385-1.642-4.51-1.323-4.615-.998-4.695-.668-4.754-.335-4.789v-4.8l.335-4.789.668-4.754.998-4.695 1.323-4.614 1.642-4.511 1.952-4.386 2.254-4.238 2.544-4.071 2.821-3.884 3.086-3.677 3.335-3.453 3.567-3.212 3.783-2.956 3.98-2.684 4.157-2.4 4.314-2.105 4.451-1.798 4.566-1.483 4.657-1.162 4.728-.833 4.774-.502 4.797-.168h0" fill="none" stroke="#b0b0b0" stroke-linecap="square" stroke-width=".8" id="line2d_27"/><g transform="matrix(.1 0 0 -.1 565.181 150.38)" id="text_28"><use xlink:href="#DejaVuSans-48"/><use x="63.623" xlink:href="#DejaVuSans-46"/><use x="95.41" xlink:href="#DejaVuSans-56"/></g></g><g id="ytick_11"><path clip-path="url(#p9fd8efec82)" d="M538.862 130.032l5.997.21 5.968.626 5.91 1.042 5.822 1.452 5.706 1.854 5.564 2.248 5.393 2.63 5.197 3 4.974 3.356 4.729 3.695 4.459 4.015 4.168 4.316 3.857 4.597 3.527 4.854 3.18 5.089 2.817 5.298 2.44 5.482 2.053 5.638 1.654 5.768 1.248 5.87.835 5.942.418 5.986v6l-.418 5.986-.835 5.942-1.248 5.87-1.654 5.768-2.052 5.638-2.44 5.482-2.818 5.298-3.18 5.089-3.527 4.854-3.857 4.597-4.168 4.316-4.46 4.015-4.728 3.695-4.974 3.355-5.197 3-5.393 2.63-5.564 2.249-5.706 1.854-5.823 1.452-5.909 1.042-5.968.627-5.997.21-5.996-.21-5.968-.627-5.91-1.042-5.822-1.452-5.706-1.854-5.564-2.248-5.393-2.63-5.197-3-4.974-3.356-4.729-3.695-4.459-4.015-4.168-4.316-3.857-4.597-3.527-4.854-3.18-5.089-2.817-5.298-2.44-5.482-2.053-5.638-1.654-5.768-1.248-5.87-.835-5.942-.418-5.986v-6l.418-5.986.835-5.942 1.248-5.87 1.654-5.768 2.052-5.638 2.44-5.482 2.818-5.298 3.18-5.089 3.527-4.854 3.857-4.597 4.168-4.316 4.46-4.015 4.728-3.695 4.974-3.355 5.197-3 5.393-2.63 5.564-2.249 5.706-1.854 5.823-1.452 5.909-1.042 5.968-.627 5.996-.21h0" fill="none" stroke="#b0b0b0" stroke-linecap="square" stroke-width=".8" id="line2d_28"/><g transform="matrix(.1 0 0 -.1 571.761 134.496)" id="text_29"><use xlink:href="#DejaVuSans-49"/><use x="63.623" xlink:href="#DejaVuSans-46"/><use x="95.41" xlink:href="#DejaVuSans-48"/></g></g><g id="ytick_12"><path clip-path="url(#p9fd8efec82)" d="M538.862 112.838l3.6.063 3.597.189 3.587.313 3.574.44 3.556.562 3.535.688 3.509.81 3.478.932 3.443 1.052 3.405 1.173 3.362 1.29 3.314 1.407 3.264 1.522 3.208 1.635 3.15 1.745 3.086 1.855 3.02 1.961 2.95 2.065 2.875 2.167 2.799 2.266 2.717 2.363 2.634 2.456 2.546 2.546 2.456 2.633 2.362 2.718 2.266 2.798 2.167 2.876 2.065 2.95 1.962 3.02 1.854 3.086 1.746 3.15 1.635 3.208 1.521 3.263 1.407 3.315 1.29 3.362 1.173 3.404 1.053 3.444.932 3.478.81 3.508.687 3.535.563 3.557.44 3.574.313 3.587.188 3.596.063 3.6-.063 3.6-.188 3.596-.314 3.587-.439 3.574-.563 3.557-.687 3.535-.81 3.508-.932 3.478-1.053 3.444-1.172 3.404-1.29 3.362-1.408 3.315-1.521 3.263-1.635 3.209-1.746 3.149-1.854 3.086-1.962 3.02-2.065 2.95-2.167 2.876-2.266 2.798-2.362 2.718-2.456 2.633-2.546 2.546-2.634 2.456-2.717 2.363-2.799 2.266-2.876 2.167-2.95 2.065-3.02 1.961-3.086 1.855-3.149 1.745-3.208 1.635-3.264 1.522-3.314 1.407-3.362 1.29-3.405 1.173-3.443 1.052-3.478.932-3.509.81-3.535.688-3.556.563-3.574.439-3.587.313-3.596.189-3.6.063-3.6-.063-3.597-.189-3.587-.313-3.574-.44-3.556-.562-3.535-.688-3.509-.81-3.478-.932-3.443-1.052-3.405-1.173-3.362-1.29-3.314-1.407-3.264-1.522-3.208-1.635-3.15-1.745-3.086-1.855-3.02-1.961-2.95-2.065-2.875-2.167-2.799-2.266-2.717-2.363-2.634-2.456-2.546-2.546-2.456-2.633-2.362-2.718-2.266-2.798-2.167-2.876-2.065-2.95-1.962-3.02-1.854-3.086-1.746-3.15-1.635-3.208-1.521-3.263-1.407-3.315-1.29-3.362-1.173-3.404-1.053-3.444-.932-3.478-.81-3.508-.687-3.535-.563-3.557-.44-3.574-.313-3.587-.188-3.596-.063-3.6.063-3.6.188-3.596.314-3.587.439-3.574.563-3.557.687-3.535.81-3.508.932-3.478 1.053-3.444 1.172-3.404 1.29-3.362 1.408-3.315 1.521-3.263 1.635-3.209 1.746-3.149 1.854-3.086 1.962-3.02 2.065-2.95 2.167-2.876 2.266-2.798 2.362-2.718 2.456-2.633 2.546-2.546 2.634-2.456 2.717-2.363 2.799-2.266 2.876-2.167 2.95-2.065 3.02-1.961 3.086-1.855 3.149-1.745 3.208-1.635 3.264-1.522 3.314-1.407 3.362-1.29 3.405-1.173 3.443-1.052 3.478-.932 3.509-.81 3.535-.688 3.556-.563 3.574-.439 3.587-.313 3.596-.189 3.6-.063h0" fill="none" stroke="#b0b0b0" stroke-linecap="square" stroke-width=".8" id="line2d_29"/><g transform="matrix(.1 0 0 -.1 578.34 118.611)" id="text_30"><use xlink:href="#DejaVuSans-49"/><use x="63.623" xlink:href="#DejaVuSans-46"/><use x="95.41" xlink:href="#DejaVuSans-50"/></g></g><g id="ytick_13"><path clip-path="url(#p9fd8efec82)" d="M538.862 95.645l4.2.073 4.196.22 4.185.366 4.17.512 4.149.657 4.124.802 4.093.945 4.058 1.087 4.017 1.228 3.972 1.368 3.922 1.505 3.867 1.642 3.808 1.775 3.743 1.907 3.674 2.037 3.601 2.164 3.523 2.288 3.442 2.41 3.355 2.528 3.264 2.643 3.171 2.756 3.072 2.866 2.97 2.97 2.866 3.073 2.756 3.17 2.644 3.265 2.528 3.355 2.41 3.441 2.288 3.523 2.163 3.601 2.037 3.675 1.907 3.743 1.776 3.807 1.641 3.867 1.506 3.922 1.367 3.972 1.229 4.018 1.087 4.057.945 4.094.801 4.124.658 4.149.512 4.17.366 4.184.22 4.196.073 4.2-.073 4.2-.22 4.196-.366 4.185-.512 4.17-.658 4.148-.801 4.124-.945 4.094-1.087 4.057-1.229 4.018-1.367 3.972-1.506 3.922-1.641 3.867-1.776 3.807-1.907 3.743-2.037 3.675-2.163 3.6-2.288 3.524-2.41 3.441-2.528 3.355-2.644 3.265-2.756 3.17-2.865 3.073-2.97 2.97-3.073 2.866-3.17 2.756-3.265 2.643-3.355 2.529-3.442 2.41-3.523 2.287-3.6 2.164-3.675 2.037-3.743 1.907-3.808 1.775-3.867 1.642-3.922 1.505-3.972 1.368-4.017 1.228-4.058 1.087-4.093.945-4.124.802-4.15.657-4.169.512-4.185.366-4.195.22-4.2.073-4.2-.073-4.196-.22-4.185-.366-4.17-.512-4.149-.657-4.124-.802-4.093-.945-4.058-1.087-4.017-1.228-3.972-1.368-3.922-1.505-3.867-1.642-3.808-1.775-3.743-1.907-3.674-2.037-3.601-2.164-3.523-2.288-3.442-2.41-3.355-2.528-3.264-2.643-3.171-2.756-3.072-2.866-2.97-2.97-2.866-3.073-2.756-3.17-2.644-3.265-2.528-3.355-2.41-3.441-2.288-3.523-2.163-3.601-2.037-3.675-1.907-3.743-1.776-3.807-1.641-3.867-1.506-3.922-1.367-3.972-1.229-4.018-1.087-4.057-.945-4.094-.801-4.124-.658-4.149-.512-4.17-.366-4.184-.22-4.196-.073-4.2.073-4.2.22-4.196.366-4.185.512-4.17.658-4.148.801-4.124.945-4.094 1.087-4.057 1.229-4.018 1.367-3.972 1.506-3.922 1.641-3.867 1.776-3.807 1.907-3.743 2.037-3.675 2.163-3.6 2.288-3.524 2.41-3.441 2.528-3.355 2.644-3.265 2.756-3.17 2.865-3.073 2.97-2.97 3.073-2.866 3.17-2.756 3.265-2.643 3.355-2.529 3.442-2.41 3.523-2.287 3.6-2.164 3.675-2.037 3.743-1.907 3.808-1.775 3.867-1.642 3.922-1.505 3.972-1.368 4.017-1.228 4.058-1.087 4.093-.945 4.124-.802 4.15-.657 4.169-.512 4.185-.366 4.195-.22 4.2-.073h0" fill="none" stroke="#b0b0b0" stroke-linecap="square" stroke-width=".8" id="line2d_30"/><g transform="matrix(.1 0 0 -.1 584.92 102.726)" id="text_31"><use xlink:href="#DejaVuSans-49"/><use x="63.623" xlink:href="#DejaVuSans-46"/><use x="95.41" xlink:href="#DejaVuSans-52"/></g></g><g id="ytick_14"><path clip-path="url(#p9fd8efec82)" d="M538.862 78.451l4.8.084 4.795.251 4.783.418 4.766.586 4.742.75 4.713.917 4.678 1.08 4.637 1.242 4.591 1.404 4.54 1.563 4.482 1.72 4.42 1.877 4.351 2.029 4.278 2.18 4.199 2.327 4.115 2.473 4.027 2.615 3.933 2.753 3.834 2.89 3.731 3.021 3.624 3.15 3.511 3.274 3.395 3.395 3.274 3.512 3.15 3.623 3.022 3.731 2.889 3.835 2.754 3.933 2.615 4.026 2.472 4.115 2.328 4.2 2.18 4.277 2.029 4.352 1.876 4.42 1.72 4.481 1.563 4.54 1.404 4.591 1.243 4.638 1.08 4.678.916 4.713.75 4.742.586 4.765.418 4.783.252 4.795.084 4.8-.084 4.8-.252 4.795-.418 4.783-.585 4.765-.751 4.742-.916 4.713-1.08 4.678-1.243 4.638-1.404 4.591-1.563 4.54-1.72 4.482-1.876 4.42-2.03 4.35-2.179 4.278-2.328 4.2-2.472 4.115-2.615 4.026-2.754 3.933-2.89 3.835-3.02 3.73-3.15 3.624-3.275 3.512-3.395 3.395-3.511 3.274-3.624 3.15-3.73 3.021-3.835 2.89-3.933 2.753-4.027 2.615-4.115 2.473-4.2 2.328-4.277 2.18-4.351 2.028-4.42 1.876-4.482 1.72-4.54 1.564-4.59 1.404-4.638 1.242-4.678 1.08-4.713.916-4.742.751-4.766.586-4.783.418-4.794.251-4.8.084-4.8-.084-4.795-.251-4.783-.418-4.766-.586-4.742-.75-4.713-.917-4.678-1.08-4.637-1.242-4.591-1.404-4.54-1.563-4.482-1.72-4.42-1.877-4.351-2.029-4.278-2.18-4.199-2.327-4.115-2.473-4.027-2.615-3.933-2.753-3.834-2.89-3.731-3.021-3.624-3.15-3.511-3.274-3.395-3.395-3.274-3.512-3.15-3.623-3.022-3.731-2.889-3.835-2.754-3.933-2.615-4.026-2.472-4.115-2.328-4.2-2.18-4.277-2.029-4.352-1.876-4.42-1.72-4.481-1.563-4.54-1.404-4.591-1.243-4.638-1.08-4.678-.916-4.713-.75-4.742-.586-4.765-.418-4.783-.252-4.795-.084-4.8.084-4.8.252-4.795.418-4.783.585-4.765.751-4.742.916-4.713 1.08-4.678 1.243-4.638 1.404-4.591 1.563-4.54 1.72-4.482 1.876-4.42 2.03-4.35 2.179-4.278 2.328-4.2 2.472-4.115 2.615-4.026 2.754-3.933 2.89-3.835 3.02-3.73 3.15-3.624 3.275-3.512 3.395-3.395 3.511-3.274 3.624-3.15 3.73-3.021 3.835-2.89 3.933-2.753 4.027-2.615 4.115-2.473 4.2-2.328 4.277-2.18 4.351-2.028 4.42-1.876 4.482-1.72 4.54-1.564 4.59-1.404 4.638-1.242 4.678-1.08 4.713-.916 4.742-.751 4.766-.586 4.783-.418 4.794-.251 4.8-.084h0" fill="none" stroke="#b0b0b0" stroke-linecap="square" stroke-width=".8" id="line2d_31"/><g transform="matrix(.1 0 0 -.1 591.5 86.842)" id="text_32"><use xlink:href="#DejaVuSans-49"/><use x="63.623" xlink:href="#DejaVuSans-46"/><use x="95.41" xlink:href="#DejaVuSans-54"/></g></g><g transform="matrix(.1 0 0 -.1 611.5 67.725)" id="text_33"><use xlink:href="#DejaVuSans-49"/><use x="63.623" xlink:href="#DejaVuSans-101"/><use x="125.146" xlink:href="#DejaVuSans-52"/></g></g><path clip-path="url(#p9fd8efec82)" d="M538.862 76.904l35.659 6.018 16.567 42.62-11.734 49.967-16.548 26.667-8.947 9.806 7.82 4.018 16.353 10.495 6.789 16.04-2.707 16.716-12.93 9.266-18.811-9.561-11.51 3.94-15.894 12.419-16.413-3.358-18.489-5.162-15.6-12.462-2.834-19.783 8.45-18.55 13.331-12.714-3.304-16.588-1.805-23.256 5.365-29.181 14.603-39.888 32.59-17.47" fill="none" stroke="#1d951b" stroke-linecap="square" stroke-opacity=".6" stroke-width="5" id="line2d_32"/><path d="M538.862 70.725a145.278 145.278 0 0 0-134.216 89.68 145.278 145.278 0 0 0 31.492 158.32 145.278 145.278 0 0 0 158.319 31.492A145.278 145.278 0 0 0 684.137 216a145.278 145.278 0 0 0-89.68-134.217 145.278 145.278 0 0 0-55.595-11.058" fill="none" stroke="#000" stroke-linecap="square" stroke-width=".8" id="patch_5"/><g id="text_34"><defs><path d="M54.89 33.016V0h-8.984v32.719q0 7.765-3.031 11.61-3.031 3.858-9.078 3.858-7.281 0-11.484-4.64-4.204-4.625-4.204-12.64V0H9.08v75.984h9.03V46.188q3.235 4.937 7.594 7.374Q30.078 56 35.797 56q9.422 0 14.25-5.828 4.844-5.828 4.844-17.156z" id="DejaVuSans-104"/><path d="M31 75.875q-6.531-11.219-9.719-22.219-3.172-10.984-3.172-22.265 0-11.266 3.203-22.328Q24.517-2 31-13.188h-7.813Q15.875-1.704 12.235 9.375q-3.64 11.078-3.64 22.016 0 10.89 3.61 21.922 3.624 11.046 10.983 22.562z" id="DejaVuSans-40"/><path d="M8.016 75.875h7.812q7.313-11.516 10.953-22.563 3.64-11.03 3.64-21.921 0-10.938-3.64-22.016-3.64-11.078-10.953-22.563H8.016Q14.5-2 17.703 9.063q3.203 11.063 3.203 22.329 0 11.28-3.203 22.265-3.203 11-9.687 22.219z" id="DejaVuSans-41"/></defs><g transform="matrix(.12 0 0 -.12 411.141 50.197)"><use xlink:href="#DejaVuSans-84"/><use x="60.818" xlink:href="#DejaVuSans-111"/><use x="122" xlink:href="#DejaVuSans-116"/><use x="161.209" xlink:href="#DejaVuSans-97"/><use x="222.488" xlink:href="#DejaVuSans-108"/><use x="250.271" xlink:href="#DejaVuSans-32"/><use x="282.059" xlink:href="#DejaVuSans-83"/><use x="345.535" xlink:href="#DejaVuSans-101"/><use x="407.059" xlink:href="#DejaVuSans-97"/><use x="468.338" xlink:href="#DejaVuSans-114"/><use x="509.42" xlink:href="#DejaVuSans-99"/><use x="564.4" xlink:href="#DejaVuSans-104"/><use x="627.779" xlink:href="#DejaVuSans-101"/><use x="689.303" xlink:href="#DejaVuSans-115"/><use x="741.402" xlink:href="#DejaVuSans-32"/><use x="773.189" xlink:href="#DejaVuSans-40"/><use x="812.203" xlink:href="#DejaVuSans-97"/><use x="873.482" xlink:href="#DejaVuSans-102"/><use x="908.672" xlink:href="#DejaVuSans-116"/><use x="947.881" xlink:href="#DejaVuSans-101"/><use x="1009.404" xlink:href="#DejaVuSans-114"/><use x="1050.518" xlink:href="#DejaVuSans-32"/><use x="1082.305" xlink:href="#DejaVuSans-83"/><use x="1145.781" xlink:href="#DejaVuSans-116"/><use x="1184.99" xlink:href="#DejaVuSans-111"/><use x="1246.172" xlink:href="#DejaVuSans-112"/><use x="1309.648" xlink:href="#DejaVuSans-41"/><use x="1348.662" xlink:href="#DejaVuSans-32"/><use x="1380.449" xlink:href="#DejaVuSans-118"/><use x="1439.629" xlink:href="#DejaVuSans-115"/><use x="1491.729" xlink:href="#DejaVuSans-32"/><use x="1523.516" xlink:href="#DejaVuSans-84"/><use x="1584.553" xlink:href="#DejaVuSans-105"/><use x="1612.336" xlink:href="#DejaVuSans-109"/><use x="1709.748" xlink:href="#DejaVuSans-101"/><use x="1771.271" xlink:href="#DejaVuSans-32"/><use x="1803.059" xlink:href="#DejaVuSans-111"/><use x="1864.24" xlink:href="#DejaVuSans-102"/><use x="1899.445" xlink:href="#DejaVuSans-32"/><use x="1931.232" xlink:href="#DejaVuSans-68"/><use x="2008.234" xlink:href="#DejaVuSans-97"/><use x="2069.514" xlink:href="#DejaVuSans-121"/></g></g></g><g id="text_35"><defs><path d="M9.813 72.906h9.859V0h-9.86z" id="DejaVuSans-73"/><path d="M54.89 33.016V0h-8.984v32.719q0 7.765-3.031 11.61-3.031 3.858-9.078 3.858-7.281 0-11.484-4.64-4.204-4.625-4.204-12.64V0H9.08v54.688h9.03v-8.5q3.235 4.937 7.594 7.374Q30.078 56 35.797 56q9.422 0 14.25-5.828 4.844-5.828 4.844-17.156z" id="DejaVuSans-110"/><path d="M19.672 64.797v-27.39h12.406q6.89 0 10.64 3.562 3.766 3.562 3.766 10.156 0 6.547-3.765 10.11-3.75 3.562-10.64 3.562zm-9.86 8.11h22.266q12.266 0 18.531-5.548 6.282-5.546 6.282-16.234 0-10.797-6.282-16.313-6.265-5.515-18.53-5.515H19.671V0h-9.86z" id="DejaVuSans-80"/><path d="M45.406 27.984q0 9.766-4.031 15.125-4.016 5.375-11.297 5.375-7.219 0-11.25-5.375-4.031-5.359-4.031-15.125 0-9.718 4.031-15.093t11.25-5.375q7.281 0 11.297 5.375 4.031 5.375 4.031 15.093zm8.985-21.203q0-13.953-6.203-20.765Q42-20.797 29.203-20.797q-4.734 0-8.937.703-4.203.703-8.157 2.172v8.735q3.954-2.141 7.813-3.157 3.86-1.031 7.86-1.031 8.843 0 13.234 4.61 4.39 4.609 4.39 13.937v4.453q-2.781-4.844-7.125-7.234Q33.938 0 27.875 0 17.828 0 11.672 7.656q-6.156 7.672-6.156 20.328 0 12.688 6.156 20.344Q17.828 56 27.875 56q6.063 0 10.406-2.39 4.344-2.391 7.125-7.22v8.297h8.985z" id="DejaVuSans-103"/><path d="M4.89 31.39h26.313v-8H4.891z" id="DejaVuSans-45"/></defs><g transform="matrix(.14 0 0 -.14 219.347 19.278)"><use xlink:href="#DejaVuSans-73"/><use x="29.492" xlink:href="#DejaVuSans-108"/><use x="57.275" xlink:href="#DejaVuSans-108"/><use x="85.059" xlink:href="#DejaVuSans-105"/><use x="112.842" xlink:href="#DejaVuSans-110"/><use x="176.221" xlink:href="#DejaVuSans-111"/><use x="237.402" xlink:href="#DejaVuSans-105"/><use x="265.186" xlink:href="#DejaVuSans-115"/><use x="317.285" xlink:href="#DejaVuSans-32"/><use x="349.072" xlink:href="#DejaVuSans-84"/><use x="409.938" xlink:href="#DejaVuSans-114"/><use x="451.051" xlink:href="#DejaVuSans-97"/><use x="512.33" xlink:href="#DejaVuSans-102"/><use x="547.535" xlink:href="#DejaVuSans-102"/><use x="582.74" xlink:href="#DejaVuSans-105"/><use x="610.523" xlink:href="#DejaVuSans-99"/><use x="665.504" xlink:href="#DejaVuSans-32"/><use x="697.291" xlink:href="#DejaVuSans-80"/><use x="757.547" xlink:href="#DejaVuSans-111"/><use x="818.729" xlink:href="#DejaVuSans-108"/><use x="846.512" xlink:href="#DejaVuSans-105"/><use x="874.295" xlink:href="#DejaVuSans-99"/><use x="929.275" xlink:href="#DejaVuSans-105"/><use x="957.059" xlink:href="#DejaVuSans-110"/><use x="1020.438" xlink:href="#DejaVuSans-103"/><use x="1083.914" xlink:href="#DejaVuSans-32"/><use x="1115.701" xlink:href="#DejaVuSans-68"/><use x="1192.703" xlink:href="#DejaVuSans-97"/><use x="1253.982" xlink:href="#DejaVuSans-116"/><use x="1293.191" xlink:href="#DejaVuSans-97"/><use x="1354.471" xlink:href="#DejaVuSans-32"/><use x="1386.258" xlink:href="#DejaVuSans-40"/><use x="1425.271" xlink:href="#DejaVuSans-50"/><use x="1488.895" xlink:href="#DejaVuSans-48"/><use x="1552.518" xlink:href="#DejaVuSans-48"/><use x="1616.141" xlink:href="#DejaVuSans-52"/><use x="1679.764" xlink:href="#DejaVuSans-45"/><use x="1715.848" xlink:href="#DejaVuSans-50"/><use x="1779.471" xlink:href="#DejaVuSans-48"/><use x="1843.094" xlink:href="#DejaVuSans-49"/><use x="1906.717" xlink:href="#DejaVuSans-53"/><use x="1970.34" xlink:href="#DejaVuSans-41"/></g></g></g><defs><clipPath id="pe8f2703b21"><path d="M329.538 216a145.278 145.278 0 0 0-89.681-134.217 145.278 145.278 0 0 0-158.32 31.492 145.278 145.278 0 0 0-31.491 158.32 145.278 145.278 0 0 0 134.216 89.68 145.278 145.278 0 0 0 134.217-89.68A145.278 145.278 0 0 0 329.538 216m0 0z"/></clipPath><clipPath id="p9fd8efec82"><path d="M684.138 216a145.278 145.278 0 0 0-89.681-134.217 145.278 145.278 0 0 0-158.32 31.492 145.278 145.278 0 0 0-31.491 158.32 145.278 145.278 0 0 0 134.216 89.68 145.278 145.278 0 0 0 134.217-89.68A145.278 145.278 0 0 0 684.138 216m0 0z"/></clipPath></defs></svg>